# xmcd CD database file
#
# Track frame offsets:
#	167
#	23672
#	67830
#	97895
#	137267
#	148812
#	176329
#	214890
#
# Disc length: 3459 seconds
#
# Revision: 0
# Processed by: cddbd v1.5.2PL0 Copyright (c) Steve Scherf et al.
# Submitted via: CDex 1.51
#
DISCID=630d8108
DTITLE=Sorcerer - The Crowning Of The Fire King
DYEAR=2017
DGENRE=Doom Metal
TTITLE0=Sirens
TTITLE1=Ship Of Doom
TTITLE2=Abandoned By The Gods
TTITLE3=The Devil's Incubus
TTITLE4=Nattvaka
TTITLE5=Crimson Cross
TTITLE6=The Crowning Of The Fire King
TTITLE7=Unbearable Sorrow
EXTD=YEAR: 2017
EXTT0=
EXTT1=
EXTT2=
EXTT3=
EXTT4=
EXTT5=
EXTT6=
EXTT7=
PLAYORDER=
